<svg width="42" height="25" viewBox="0 0 42 25" fill="none" xmlns="http://www.w3.org/2000/svg">
<g clip-path="url(#clip0)">
<path d="M2.69227 2.57436H39.3077C40.795 2.57436 42 1.98543 42 1.25859C42 0.531749 40.795 -0.0572205 39.3077 -0.0572205H2.69227C1.20504 -0.0572205 0 0.531709 0 1.25859C0 1.98547 1.20504 2.57436 2.69227 2.57436Z" fill="white"/>
<path d="M17.1938 13.1579H39.2437C40.7663 13.1579 42 12.5689 42 11.8421C42 11.1153 40.7663 10.5263 39.2437 10.5263H17.1938C15.6712 10.5263 14.4375 11.1152 14.4375 11.8421C14.4375 12.569 15.6712 13.1579 17.1938 13.1579Z" fill="white"/>
<path d="M7.17473 24.1154H39.6147C40.9324 24.1154 42 23.5264 42 22.7996C42 22.0728 40.9324 21.4838 39.6147 21.4838H7.17473C5.8571 21.4838 4.78947 22.0727 4.78947 22.7996C4.78947 23.5264 5.8571 24.1154 7.17473 24.1154Z" fill="white"/>
</g>
<defs>
<clipPath id="clip0">
<rect width="42" height="25" fill="white" transform="matrix(-1 0 0 1 42 0)"/>
</clipPath>
</defs>
</svg>
